<svg width="20" height="21" viewBox="0 0 20 21" fill="none" xmlns="http://www.w3.org/2000/svg">
<path d="M10 1.68359V7.57359L11.6667 5.89074" stroke="#A8A8A8" stroke-width="1.5" stroke-linecap="round" stroke-linejoin="round"/>
<path d="M10.0026 7.57348L8.33594 5.89062" stroke="#A8A8A8" stroke-width="1.5" stroke-linecap="round" stroke-linejoin="round"/>
<path d="M1.64844 10.9375H5.32344C5.6401 10.9375 5.92344 11.1142 6.0651 11.4003L7.0401 13.3692C7.32344 13.9414 7.89844 14.3032 8.53177 14.3032H11.4734C12.1068 14.3032 12.6818 13.9414 12.9651 13.3692L13.9401 11.4003C14.0818 11.1142 14.3734 10.9375 14.6818 10.9375H18.3151" stroke="#A8A8A8" stroke-width="1.5" stroke-linecap="round" stroke-linejoin="round"/>
<path d="M5.83073 3.47656C2.88073 3.91411 1.66406 5.66428 1.66406 9.25718V12.6229C1.66406 16.83 3.33073 18.5129 7.4974 18.5129H12.4974C16.6641 18.5129 18.3307 16.83 18.3307 12.6229V9.25718C18.3307 5.66428 17.1141 3.91411 14.1641 3.47656" stroke="#A8A8A8" stroke-width="1.5" stroke-linecap="round" stroke-linejoin="round"/>
</svg>
